# xmcd CD database generated by RipIT
#
# Track frame offsets:
# 150
# 15402
# 33859
#
# Disc length: 744 seconds
#
# Revision: 0
# Processed by: cddbd v1.5.2PL0 Copyright (c) Steve Scherf et al.
# Submitted via: RipIT 3.9.0 www.suwald.com/ripit/ripit.html on 2019-08-31 at 20:01
#
DISCID=1302e603
DTITLE=The Staves - Blood I Bled
DYEAR=2014
DGENRE=Indie
TTITLE0=Open
TTITLE1=Blood I Bled
TTITLE2=America
EXTD=
EXTT0=
EXTT1=
EXTT2=
PLAYORDER=
